<svg xmlns="http://www.w3.org/2000/svg" width="24" height="24" fill="#E4405F" viewBox="0 0 24 24">
  <path d="M7.75 2h8.5C19.44 2 22 4.56 22 7.75v8.5C22 19.44 19.44 22 16.25 22h-8.5C4.56 22 2 19.44 2 16.25v-8.5C2 4.56 4.56 2 7.75 2zm0 1.5C5.4 3.5 3.5 5.4 3.5 7.75v8.5c0 2.35 1.9 4.25 4.25 4.25h8.5c2.35 0 4.25-1.9 4.25-4.25v-8.5c0-2.35-1.9-4.25-4.25-4.25h-8.5z"></path>
  <path d="M12 7a5 5 0 100 10 5 5 0 000-10zm0 1.5a3.5 3.5 0 110 7 3.5 3.5 0 010-7z"></path>
  <circle cx="17.5" cy="6.5" r="1"></circle>
</svg>
